HIERARCHY
ROOT Hips
{
  OFFSET 4.14998 96.3533 40.6841
  CHANNELS 6 Xposition Yposition Zposition Zrotation Xrotation Yrotation
  JOINT RightUpLeg
  {
    OFFSET -8.9458 -8.66707 0.101652
    CHANNELS 3 Zrotation Xrotation Yrotation
    JOINT RightLeg
    {
      OFFSET 0 -44.4227 1.3727
      CHANNELS 3 Zrotation Xrotation Yrotation
      JOINT RightFoot
      {
        OFFSET 0.253549 -42.0924 -1.46059
        CHANNELS 3 Zrotation Xrotation Yrotation
        JOINT RightToes
        {
          OFFSET 0.04 -4.41509 8.4991
          CHANNELS 3 Zrotation Xrotation Yrotation
          End Site
          {
            OFFSET -0.08 -0.137448 9.77979
          }
        }
      }
    }
  }
  JOINT Spine
  {
    OFFSET 0 11.8905 0
    CHANNELS 3 Zrotation Xrotation Yrotation
    JOINT Spine1
    {
      OFFSET 0 25.6574 0.127663
      CHANNELS 3 Zrotation Xrotation Yrotation
      JOINT HEad
      {
        OFFSET 0 8.73416 0.011341
        CHANNELS 3 Zrotation Xrotation Yrotation
        End Site
        {
          OFFSET -0.29 12.7742 2.51395
        }
      }
      JOINT LeftShoulder1
      {
        OFFSET 8.99 -0.362252 -0.22
        CHANNELS 3 Zrotation Xrotation Yrotation
        JOINT LeftArm
        {
          OFFSET 10.2827 -0.00338 0.322123
          CHANNELS 3 Zrotation Xrotation Yrotation
          JOINT LeftForeArm
          {
            OFFSET 32.7669 0.099144 -1.42434
            CHANNELS 3 Zrotation Xrotation Yrotation
            JOINT LeftHand
            {
              OFFSET 27.5643 0.085362 1.02216
              CHANNELS 3 Zrotation Xrotation Yrotation
              End Site
              {
                OFFSET 16.7443 -0.6 1.50291
              }
            }
          }
        }
      }
      JOINT RightShoulder
      {
        OFFSET -8.99 -0.362252 -0.22
        CHANNELS 3 Zrotation Xrotation Yrotation
        JOINT RightArm
        {
          OFFSET -10.2827 -0.00338 0.322123
          CHANNELS 3 Zrotation Xrotation Yrotation
          JOINT RightForeArm
          {
            OFFSET -32.8971 0.099144 -1.42434
            CHANNELS 3 Zrotation Xrotation Yrotation
            JOINT RightHand
            {
              OFFSET -27.4921 0.085362 1.02216
              CHANNELS 3 Zrotation Xrotation Yrotation
              End Site
              {
                OFFSET -16.6312 -0.6 1.50291
              }
            }
          }
        }
      }
    }
  }
  JOINT LeftUpLeg
  {
    OFFSET 8.9458 -8.66707 0.101652
    CHANNELS 3 Zrotation Xrotation Yrotation
    JOINT LeftLeg
    {
      OFFSET 0 -44.4227 1.3727
      CHANNELS 3 Zrotation Xrotation Yrotation
      JOINT LeftFoot
      {
        OFFSET -0.253549 -42.0924 -1.46059
        CHANNELS 3 Zrotation Xrotation Yrotation
        JOINT LeftToes
        {
          OFFSET -0.04 -4.41509 8.4991
          CHANNELS 3 Zrotation Xrotation Yrotation
          End Site
          {
            OFFSET 0.08 -0.047448 9.77979
          }
        }
      }
    }
  }
}
MOTION
Frames:	11
Frame Time:	0.0166667
0.00000 96.00000 0.00000 0.00000 0.00000 0.00000 0.00000 0.00000 0.00000 0.00000 0.00000 0.00000 0.00000 0.00000 0.00000 0.00000 0.00000 0.00000 0.00000 0.00000 0.00000 0.00000 0.00000 0.00000 0.00000 0.00000 0.00000 0.00000 0.00000 0.00000 0.00000 0.00000 0.00000 0.00000 0.00000 0.00000 0.00000 0.00000 0.00000 0.00000 0.00000 0.00000 0.00000 0.00000 0.00000 0.00000 0.00000 0.00000 0.00000 0.00000 0.00000 0.00000 0.00000 0.00000 0.00000 0.00000 0.00000 0.00000 0.00000 0.00000 0.00000 0.00000 0.00000 
17.4689 97.2004 27.6967 0.7367 2.49229 166.495 -17.4521 -19.6692 -1.0502 7.30968 28.8043 0.296439 11.0122 -4.29197 -0.475731 -2.90084 -7.78594 -1.57542 1.61903 6.54991 -3.18944 -2.75175 12.5455 -5.20785 11.6031 4.46315 -12.2264 7.95139e-016 0 3.18055e-015 -77.6961 -4.82282 -43.6086 -16.3917 44.2306 -111.213 6.54677 9.62745 -1.04006 25.6086 -3.78673 -16.0803 68.2659 -31.8682 45.0143 -14.0387 33.4494 139.838 -15.8426 10.6216 -9.84256 19.5907 -3.87971 -7.70846 -24.9865 36.7279 6.7452 -17.6123 21.7113 4.38161 34.5452 -50.6653 18.6446 
17.2561 96.5616 27.9287 1.30432 2.96748 166.184 -16.6655 -20.2921 -0.411416 7.16111 30.0022 -0.228216 9.73987 -0.773811 -0.714151 -4.77618 -14.8417 -1.09013 2.02933 6.64489 -3.27905 -2.60105 12.6301 -5.26397 11.6028 5.56317 -11.7482 7.95139e-016 1.59028e-015 3.18055e-015 -78.3733 -5.98827 -45.5533 -16.4481 44.2181 -110.964 6.54677 9.62745 -1.04006 25.681 -3.81144 -16.1341 69.0384 -32.3453 46.9481 -14.6731 32.7793 140.892 -14.7124 10.7783 -11.5896 19.1131 -2.5546 -8.18318 -23.7104 36.4331 5.46888 -18.3577 23.9697 4.9295 43.1564 -57.2851 24.0972 
17.102 95.9109 28.1619 1.88475 3.50634 166 -15.7496 -20.837 0.248748 6.93668 31.1335 -1.19825 8.09651 3.59745 -0.893633 -7.02477 -23.1378 -0.866306 2.30822 6.78359 -3.37711 -2.46591 12.8258 -5.36937 11.7162 6.10954 -11.3386 1.59028e-015 -1.59028e-015 -3.18055e-015 -79.0045 -6.92678 -47.7309 -16.4202 44.0943 -110.761 6.54677 9.62745 -1.04006 25.8381 -3.83904 -16.1568 69.7722 -32.8944 48.9042 -15.2525 32.0825 142.044 -13.4834 10.8981 -13.3794 18.4889 -0.903495 -9.00494 -21.6523 35.5762 4.49986 -18.118 25.7438 5.13716 54.4837 -62.8919 32.6317 
17.0502 95.2885 28.3617 2.36919 4.06682 166.003 -14.9026 -21.2553 0.81785 6.66861 32.2334 -2.42497 6.44607 7.93508 -0.945044 -9.38716 -31.3271 -1.01885 2.35695 6.93894 -3.47408 -2.37134 13.112 -5.57269 11.9588 6.13838 -11.0441 -1.76556e-031 3.18055e-015 3.18055e-015 -79.6101 -7.63106 -49.8881 -16.3581 43.9833 -110.665 6.54677 9.62745 -1.04006 26.0509 -3.85354 -16.1059 70.4259 -33.5391 50.6497 -15.8123 31.2726 143.327 -12.133 10.9755 -15.2385 17.7561 0.808306 -10.0155 -19.3847 34.5935 4.2235 -16.8163 26.8644 4.91213 65.3385 -65.9392 41.8369 
17.0649 94.8365 28.5264 2.65873 4.56343 166.305 -14.3602 -21.3836 1.22194 6.45565 32.9694 -3.67179 5.20145 11.449 -0.911232 -11.473 -37.7488 -1.5224 2.18471 7.08384 -3.6218 -2.35676 13.4264 -5.91246 12.3541 5.8429 -10.9164 2.64834e-031 -4.77083e-015 3.18055e-015 -80.1856 -8.10125 -51.6992 -16.3268 44.0095 -110.705 6.54677 9.62745 -1.04006 26.2917 -3.84786 -15.9713 70.8976 -34.2471 51.9075 -16.3659 30.2905 144.72 -10.6987 11.0042 -17.1376 16.9826 2.29518 -10.9488 -17.3487 33.6247 4.76687 -14.6487 27.4688 4.32487 71.9853 -66.7408 48.0643 
17.1368 94.6595 28.636 2.68994 4.88622 166.939 -14.2835 -21.2582 1.43518 6.52608 33.2591 -4.77017 4.45144 13.5089 -0.85259 -12.8858 -41.1407 -2.26029 1.85325 7.1728 -3.82728 -2.4407 13.6683 -6.39734 12.8821 5.49269 -10.9672 1.76556e-031 3.18055e-015 -3.18055e-015 -80.6836 -8.33429 -52.8833 -16.3733 44.2221 -110.859 6.54677 9.62745 -1.04006 26.5264 -3.83131 -15.8035 71.1055 -34.938 52.466 -16.894 29.1737 146.153 -9.23541 10.98 -19.0042 16.2656 3.32235 -11.5489 -15.773 32.7155 5.69273 -12.1391 27.5593 3.55675 73.5013 -66.3491 49.9938 
17.244 94.8175 28.6804 2.48312 4.94561 167.85 -14.6897 -20.9994 1.50848 7.08144 33.1208 -5.69852 4.08512 13.8479 -0.794959 -13.2457 -40.7686 -3.02941 1.47892 7.17769 -4.07786 -2.59675 13.7577 -6.98204 13.4571 5.32072 -11.1557 0 3.18055e-015 -0 -81.0162 -8.31626 -53.2981 -16.4763 44.539 -111.064 6.54677 9.62745 -1.04006 26.7154 -3.82414 -15.6916 71.0596 -35.5148 52.2731 -17.3497 28.0689 147.518 -7.78506 10.9036 -20.7539 15.705 3.78212 -11.7298 -14.6901 31.8347 6.22305 -10.0311 27.0653 2.86332 70.8914 -65.4696 48.1593 
17.3576 95.3003 28.666 2.13106 4.74406 168.885 -15.4567 -20.7288 1.54364 8.10429 32.6699 -6.47534 4.11769 12.6119 -0.764966 -12.3005 -36.5636 -3.54527 1.17168 7.10864 -4.33532 -2.77116 13.6902 -7.56242 13.9468 5.42078 -11.4143 1.59028e-015 1.59028e-015 -3.18055e-015 -81.1088 -8.04695 -52.9618 -16.5603 44.8017 -111.264 6.54677 9.62745 -1.04006 26.8342 -3.84428 -15.7072 70.8425 -35.8963 51.4636 -17.696 27.137 148.699 -6.39284 10.7819 -22.2922 15.3829 3.73155 -11.6073 -14.0662 30.9588 5.75573 -9.07563 25.9463 2.48902 65.3567 -64.3208 43.4355 
17.4527 96.0335 28.6155 1.73586 4.36919 169.855 -16.3986 -20.517 1.60283 9.30505 32.0257 -7.05555 4.74112 10.4877 -0.801469 -10.2896 -29.5487 -3.71312 0.985825 7.00124 -4.54889 -2.90906 13.5234 -8.01991 14.2125 5.73114 -11.6785 -3.53113e-031 6.36111e-015 3.18055e-015 -80.964 -7.57139 -52.0038 -16.5681 44.8946 -111.426 6.54677 9.62745 -1.04006 26.8713 -3.88861 -15.8435 70.5622 -36.07 50.2968 -17.9423 26.4508 149.614 -5.12892 10.6331 -23.5288 15.3388 3.31265 -11.3349 -13.868 30.1328 4.20433 -9.61497 24.3017 2.51765 57.9203 -62.7688 36.727 
17.5154 96.9028 28.5581 1.3695 3.91917 170.617 -17.3211 -20.4057 1.64941 10.2543 31.2893 -7.2768 6.08993 8.46395 -0.921055 -7.93967 -21.7449 -3.72575 0.928883 6.8882 -4.67971 -2.96436 13.3218 -8.27799 14.1598 6.10054 -11.9049 -7.95139e-016 -4.77083e-015 -0 -80.6549 -6.97204 -50.6104 -16.4955 44.7951 -111.549 6.54677 9.62745 -1.04006 26.8174 -3.9333 -16.023 70.3342 -36.1225 49.0675 -18.1198 26.0133 150.248 -4.07516 10.484 -24.4225 15.5656 2.64372 -10.9448 -14.0497 29.4613 2.01369 -11.308 22.4998 2.82288 49.7348 -60.5653 29.2248 
